<svg width="27" height="28" viewBox="0 0 27 28" fill="none" xmlns="http://www.w3.org/2000/svg">
<path d="M14.3722 4.84H14.1522C13.7708 5.896 13.3455 7.09867 12.8762 8.448C12.4362 9.79733 11.9668 11.2053 11.4682 12.672C10.9695 14.1093 10.5002 15.5027 10.0602 16.852L9.44418 19.58C9.26818 20.1373 9.07751 20.7533 8.87218 21.428C8.69618 22.1027 8.49085 22.792 8.25618 23.496C8.05085 24.1707 7.84551 24.816 7.64018 25.432C7.46418 26.048 7.30284 26.5907 7.15618 27.06C6.86284 27.148 6.54017 27.2213 6.18817 27.28C5.86551 27.368 5.46951 27.412 5.00017 27.412C4.06151 27.412 3.31351 27.236 2.75617 26.884C2.22817 26.5027 1.96417 25.9453 1.96417 25.212C1.96417 24.8893 2.00817 24.552 2.09617 24.2C2.21351 23.848 2.33084 23.452 2.44817 23.012C2.74151 22.044 3.13751 20.8413 3.63617 19.404C4.13484 17.9373 4.67751 16.3533 5.26417 14.652C5.85084 12.9507 6.45218 11.2347 7.06818 9.504C7.71351 7.77333 8.31485 6.16 8.87218 4.664C9.42951 3.13867 9.91351 1.86267 10.3242 0.835999C10.6762 0.630665 11.2188 0.439998 11.9522 0.263999C12.6855 0.0879995 13.4335 0 14.1962 0C15.1935 0 16.1029 0.146667 16.9242 0.44C17.7749 0.733333 18.3029 1.20267 18.5082 1.848C19.1242 3.46133 19.7842 5.30933 20.4882 7.392C21.1922 9.47467 21.9109 11.6453 22.6442 13.904C23.3775 16.1627 24.0815 18.3627 24.7562 20.504C25.4309 22.6453 26.0322 24.5813 26.5602 26.312C26.2669 26.6347 25.8562 26.8987 25.3282 27.104C24.8295 27.3093 24.2429 27.412 23.5682 27.412C22.6002 27.412 21.8962 27.236 21.4562 26.884C21.0455 26.5027 20.7229 25.9307 20.4882 25.168C18.9451 20.9126 18.1077 16.4862 16.7042 12.188C16.2642 10.7213 15.8388 9.35733 15.4282 8.096C15.0175 6.83467 14.6655 5.74933 14.3722 4.84ZM0.0281483 19.008C-0.223906 17.516 1.26823 14.996 2.44817 14.86C3.62812 14.724 17.8321 16.0212 17.8321 16.0212L19 20.36L0.0281483 19.008Z" fill="url(#paint0_radial_161_163)"/>
<defs>
<radialGradient id="paint0_radial_161_163" cx="0" cy="0" r="1" gradientUnits="userSpaceOnUse" gradientTransform="rotate(45.9042) scale(38.1688 125.642)">
<stop offset="0.0001" stop-color="#B5A0FF"/>
<stop offset="1" stop-color="#9F84FF"/>
</radialGradient>
</defs>
</svg>
